# AST/ASF file generated using VICON BodyLanguage
# -----------------------------------------------
:version 1.10
:name VICON
:units
  mass 1.0
  length 0.45
  angle deg
:documentation
   .ast/.asf automatically generated from VICON data using
   VICON BodyBuilder and BodyLanguage model FoxedUp or BRILLIANT.MOD
:root
   order TX TY TZ RX RY RZ
   axis XYZ
   position 0 0 0  
   orientation 0 0 0 
:bonedata
  begin
     id 1 
     name lhipjoint
     direction 0.621036 -0.695554 0.361275 
     length 2.46325 
     axis 0 0 0  XYZ
  end
  begin
     id 2 
     name lfemur
     direction 0.34202 -0.939693 0  
     length 6.54784  
     axis 0 0 20  XYZ
    dof rx ry rz
    limits (-160.0 20.0)
           (-70.0 70.0)
           (-60.0 70.0)
  end
  begin
     id 3 
     name ltibia
     direction 0.34202 -0.939693 0   
     length 7.84737   
     axis 0 0 20   XYZ
    dof rx
    limits (-10.0 170.0)
  end
  begin
     id 4 
     name lfoot
     direction 0.0790693 -0.217241 0.97291   
     length 2.59747   
     axis -90 7.62852e-016 20   XYZ
    dof rx rz
    limits (-45.0 90.0)
           (-70.0 20.0)
  end
  begin
     id 5 
     name ltoes
     direction 1.53572e-011 -4.21898e-011 1   
     length 1.29919   
     axis -90 7.62852e-016 20   XYZ
    dof rx
    limits (-90.0 20.0)
  end
  begin
     id 6 
     name rhipjoint
     direction -0.602353 -0.708375 0.367935   
     length 2.41867  
     axis 0 0 0  XYZ 
  end
  begin
     id 7 
     name rfemur
     direction -0.34202 -0.939693 0   
     length 6.92065   
     axis 0 0 -20   XYZ
    dof rx ry rz
    limits (-160.0 20.0)
           (-70.0 70.0)
           (-70.0 60.0)
  end
  begin
     id 8 
     name rtibia
     direction -0.34202 -0.939693 0   
     length 7.88883   
     axis 0 0 -20   XYZ
    dof rx
    limits (-10.0 170.0)
 end
 begin
     id 9 
     name rfoot
     direction -0.0768692 -0.211196 0.974416   
     length 2.43714  
     axis -90 -7.62852e-016 -20   XYZ
    dof rx rz
    limits (-45.0 90.0)
           (-20.0 70.0)
  end
  begin
     id 10 
     name rtoes
     direction -1.53575e-011 -4.21933e-011 1   
     length 1.22113   
     axis -90 -7.62852e-016 -20   XYZ
    dof rx
    limits (-90.0 20.0)
  end
  begin
     id 11 
     name lowerback
     direction 0.0197937 0.98943 -0.143655   
     length 2.16931   
     axis 0 0 0   XYZ
    dof rx ry rz
    limits (-20.0 45.0)
           (-30.0 30.0)
           (-30.0 30.0)
  end
  begin
     id 12 
     name upperback
     direction -0.00183968 0.999975 0.00684288   
     length 2.17221   
     axis 0 0 0   XYZ
    dof rx ry rz
    limits (-20.0 45.0)
           (-30.0 30.0)
           (-30.0 30.0)
  end
  begin
     id 13 
     name thorax
     direction -0.00950244 0.997208 0.0740685   
     length 2.22549   
     axis 0 0 0   XYZ
    dof rx ry rz
    limits (-20.0 45.0)
           (-30.0 30.0)
           (-30.0 30.0)
  end
  begin
     id 14 
     name lowerneck
     direction 0.0218238 0.996215 0.0841425   
     length 1.77269   
     axis 0 0 0   XYZ
    dof rx ry rz
    limits (-20.0 45.0)
           (-30.0 30.0)
           (-30.0 30.0)
  end
  begin
     id 15 
     name upperneck
     direction -0.00430652 0.994214 -0.107332   
     length 1.76534   
     axis 0 0 0   XYZ
    dof rx ry rz
    limits (-20.0 45.0)
           (-30.0 30.0)
           (-30.0 30.0)
  end
  begin
     id 16
     name head
     direction -0.00328946 0.998959 -0.0454998  
     length 1.82634  
     axis 0 0 0   XYZ
    dof rx ry rz
    limits (-20.0 45.0)
           (-30.0 30.0)
           (-30.0 30.0)
  end
  begin
     id 17 
     name lclavicle
     direction 0.970962 0.239191 0.00450212  
     length 3.84872  
     axis 0 0 0   XYZ
    dof ry rz
    limits (-20.0 10.0)
           (0.0 20.0)
  end
  begin
     id 18 
     name lhumerus
     direction 1 -4.48966e-011 5.74696e-028   
     length 5.22771   
     axis 180 -30 -90   XYZ
    dof rx ry rz
    limits (-60.0 90.0)
           (-90.0 90.0)
           (-90.0 90.0)
  end
  begin
     id 19
     name lradius
     direction 1 -4.4896e-011 4.25109e-027   
     length 3.45251   
     axis 180 -30 -90   XYZ
    dof rx
    limits (-10.0 170.0)
  end
  begin
     id 20
     name lwrist
     direction 1 -4.48971e-011 1.15382e-027   
     length 1.72626   
     axis -5.52449e-016 90 90   XYZ
    dof ry
    limits (-180.0 0.0)
 end
  begin
     id 21 
     name lhand
     direction 1 -4.49034e-011 2.30765e-027   
     length 0.552119   
     axis -1.47248e-015 90 90   XYZ
    dof rx rz
    limits (-90.0 90.0)
           (-45.0 45.0)
  end
  begin
     id 22 
     name lfingers
     direction 1 -4.48951e-011 4.61529e-027   
     length 0.445133   
     axis -2.94495e-015 90 90   XYZ
    dof rx
    limits (0.0 90.0)
  end
  begin
     id 23
     name lthumb
     direction 0.707107 -6.34991e-011 0.707107   
     length 0.639124   
     axis -90 45 2.85299e-015   XYZ
    dof rx rz
    limits (-45.0 45.0)
           (-45.0 45.0)
  end
  begin
     id 24 
     name rclavicle
     direction -0.97424 0.222511 -0.0366699   
     length 3.73439  
     axis 0 0 0   XYZ 
    dof ry rz
    limits (-10.0 20.0)
           (-20.0 0.0)
  end
  begin
     id 25 
     name rhumerus
     direction -1 -4.48956e-011 -4.97258e-028  
     length 5.2398   
     axis 180 30 90   XYZ
    dof rx ry rz
    limits (-90.0 60.0)
           (-90.0 90.0)
           (-90.0 90.0)
  end
  begin
     id 26 
     name rradius
     direction -1 -4.4897e-011 -1.72611e-027   
     length 3.48042   
     axis 180 30 90   XYZ
    dof rx
    limits (-10.0 170.0)
  end
  begin
     id 27 
     name rwrist
     direction -1 -4.48976e-011 1.15382e-027   
     length 1.74021   
     axis -5.52449e-016 -90 -90   XYZ
    dof ry
    limits (-180.0 0.0)
  end
  begin
     id 28
     name rhand
     direction -1 -4.48963e-011 2.30765e-027   
     length 0.618713   
     axis -1.47248e-015 -90 -90   XYZ
    dof rx rz
    limits (-90.0 90.0)
           (-45.0 45.0)
  end
  begin
     id 29
     name rfingers
     direction -1 -4.4888e-011 4.61529e-027   
     length 0.498823   
     axis -2.94495e-015 -90 -90   XYZ
    dof rx
    limits (0.0 90.0)
  end
  begin
     id 30
     name rthumb
     direction -0.707107 -6.34968e-011 0.707107   
     length 0.716213   
     axis -90 -45 -2.85299e-015   XYZ
    dof rx rz
    limits (-45.0 45.0)
           (-45.0 45.0)
  end
:hierarchy
  begin
    root lhipjoint rhipjoint lowerback
    lhipjoint lfemur
    lfemur ltibia
    ltibia lfoot
    lfoot ltoes
    rhipjoint rfemur
    rfemur rtibia
    rtibia rfoot
    rfoot rtoes
    lowerback upperback
    upperback thorax
    thorax lowerneck lclavicle rclavicle
    lowerneck upperneck
    upperneck head
    lclavicle lhumerus
    lhumerus lradius
    lradius lwrist
    lwrist lhand lthumb
    lhand lfingers
    rclavicle rhumerus
    rhumerus rradius
    rradius rwrist
    rwrist rhand rthumb
    rhand rfingers
  end

#!OML:ASF G:\JayActor3\Patient Classification 1\Patient 1\Session 5\male.ASF
:FULLY-SPECIFIED
:DEGREES
132
root -14.0958 16.7759 -5.87754 324.579 87.1609 326.66
lowerback 1.57918 -0.643581 0.693398
upperback 2.27302 -0.819642 -0.941811
thorax 1.41955 -0.380277 -1.35046
lowerneck -8.77708 0.0103035 2.079
upperneck 5.35412 -0.345229 1.65409
head 3.27579 -0.0509836 0.156688
rclavicle 9.16894e-015 1.19271e-015
rhumerus -33.9165 -10.571 -84.4645
rradius 20.0702
rwrist 12.7108
rhand -16.7367 -5.41648
rfingers 7.12502
rthumb 9.48944 -35.1828
lclavicle 9.16894e-015 1.19271e-015
lhumerus -28.8133 8.96376 83.349
lradius 22.9466
lwrist 8.36159
lhand -18.1861 15.3773
lfingers 7.12502
lthumb 8.09074 45.2025
rfemur -20.6414 3.03858 21.9932
rtibia 72.0238
rfoot -11.9389 -15.4515
rtoes -2.37515
lfemur -5.77644 9.80488 -22.943
ltibia 25.2813
lfoot -16.8469 4.37509
ltoes -1.0173
133
root -13.9465 16.76 -5.88672 326 87.3047 328.117
lowerback 1.68824 -0.723356 0.522816
upperback 2.28663 -0.926297 -0.918381
thorax 1.37233 -0.436326 -1.22902
lowerneck -8.78609 0.0579709 2.12936
upperneck 5.42575 -0.284397 1.5833
head 3.30235 -0.0218346 0.128147
rclavicle 1.09332e-015 1.07344e-014
rhumerus -34.3634 -9.92124 -84.6936
rradius 20.7428
rwrist 11.5512
rhand -16.6769 -5.41003
rfingers 7.12502
rthumb 9.54707 -35.1737
lclavicle 1.09332e-015 1.07344e-014
lhumerus -28.3967 7.87041 83.8093
lradius 23.5385
lwrist 8.91622
lhand -18.0054 15.0391
lfingers 7.12502
lthumb 8.26513 44.8574
rfemur -21.8296 3.28062 21.9
rtibia 71.4668
rfoot -13.3016 -15.3505
rtoes -2.69452
lfemur -5.13805 9.81507 -23.0486
ltibia 25.2642
lfoot -17.3046 4.26198
ltoes -1.17662
134
root -13.7976 16.7426 -5.89554 327.526 87.4356 329.675
lowerback 1.7958 -0.79466 0.362829
upperback 2.30373 -1.02186 -0.895092
thorax 1.33035 -0.486541 -1.11352
lowerneck -8.78851 0.101072 2.1781
upperneck 5.47816 -0.229283 1.51964
head 3.32108 0.00447184 0.10187
rclavicle -9.0944e-015 -7.15625e-015
rhumerus -34.7965 -9.3618 -84.8924
rradius 21.3887
rwrist 10.4773
rhand -16.6692 -5.31647
rfingers 7.12502
rthumb 9.55455 -35.0798
lclavicle -9.0944e-015 -7.15625e-015
lhumerus -27.9856 6.79845 84.2307
lradius 24.146
lwrist 9.42823
lhand -17.8356 14.7031
lfingers 7.12502
lthumb 8.42903 44.5149
rfemur -22.9805 3.51719 21.8134
rtibia 70.7659
rfoot -14.509 -15.3221
rtoes -2.76475
lfemur -4.50442 9.84799 -23.1415
ltibia 25.2467
lfoot -17.7597 4.14975
ltoes -1.34449
135
root -13.6487 16.7246 -5.90365 329.195 87.5642 331.37
lowerback 1.90341 -0.862448 0.199298
upperback 2.32374 -1.113 -0.87188
thorax 1.29213 -0.534495 -0.995951
lowerneck -8.78851 0.142815 2.22712
upperneck 5.51374 -0.175871 1.46073
head 3.33358 0.0299217 0.0769722
rclavicle 5.06901e-015 7.95139e-015
rhumerus -35.2089 -8.86947 -85.0719
rradius 22.005
rwrist 9.49729
rhand -16.7194 -5.18916
rfingers 7.12502
rthumb 9.50611 -34.9547
lclavicle 5.06901e-015 7.95139e-015
lhumerus -27.5741 5.77202 84.6092
lradius 24.7559
lwrist 9.88092
lhand -17.7076 14.4131
lfingers 7.12502
lthumb 8.55248 44.2199
rfemur -24.085 3.73572 21.7274
rtibia 69.9195
rfoot -15.5686 -15.3629
rtoes -2.74405
lfemur -3.85585 9.9051 -23.2258
ltibia 25.1964
lfoot -18.1971 4.03368
ltoes -1.53692
136
root -13.5001 16.7065 -5.91076 331.009 87.6939 333.205
lowerback 2.01689 -0.926897 0.0276734
upperback 2.34227 -1.20012 -0.848722
thorax 1.24996 -0.580516 -0.873619
lowerneck -8.78118 0.181237 2.28215
upperneck 5.5323 -0.126795 1.39889
head 3.33881 0.0529807 0.0497875
rclavicle 8.72168e-015 7.95139e-016
rhumerus -35.605 -8.4416 -85.2333
rradius 22.5878
rwrist 8.61939
rhand -16.8293 -5.04334
rfingers 7.12502
rthumb 9.40002 -34.8137
lclavicle 8.72168e-015 7.95139e-016
lhumerus -27.1675 4.78824 84.9458
lradius 25.3659
lwrist 10.3072
lhand -17.6303 14.1672
lfingers 7.12502
lthumb 8.62711 43.971
rfemur -25.1396 3.92551 21.6426
rtibia 68.9288
rfoot -16.4745 -15.4735
rtoes -2.63047
lfemur -3.17737 9.98662 -23.3002
ltibia 25.0817
lfoot -18.6049 3.91085
ltoes -1.74433
137
root -13.3513 16.6899 -5.91671 333.229 87.8361 335.437
lowerback 2.13089 -0.990803 -0.169089
upperback 2.35968 -1.28712 -0.827844
thorax 1.20748 -0.626757 -0.73932
lowerneck -8.77713 0.218561 2.33777
upperneck 5.53909 -0.0794359 1.34185
head 3.34067 0.075284 0.0239531
rclavicle -8.44835e-015 1.59028e-015
rhumerus -35.9761 -8.07133 -85.3799
rradius 23.1329
rwrist 7.85931
rhand -16.9876 -4.91574
rfingers 7.12502
rthumb 9.2473 -34.693
lclavicle -8.44835e-015 1.59028e-015
lhumerus -26.7597 3.86266 85.24
lradius 25.9738
lwrist 10.6927
lhand -17.6106 14.0132
lfingers 7.12502
lthumb 8.64613 43.8161
rfemur -26.139 4.07741 21.5447
rtibia 67.7928
rfoot -17.2316 -15.6396
rtoes -2.6506
lfemur -2.45449 10.0864 -23.3779
ltibia 24.868
lfoot -18.9687 3.78385
ltoes -1.99889
